<svg xmlns="http://www.w3.org/2000/svg" xmlns:xlink="http://www.w3.org/1999/xlink" width="100%" zoomAndPan="magnify" viewBox="0 0 375 374.999991" height="100%" preserveAspectRatio="xMidYMid meet" version="1.0"><defs><g/></defs><g fill="#000000" fill-opacity="1"><g transform="translate(103.867389, 223.299485)"><g><path d="M 89.203125 -1.703125 C 89.390625 -1.328125 89.335938 -0.945312 89.046875 -0.5625 C 88.765625 -0.1875 88.390625 0 87.921875 0 L 68.3125 0 C 67.65625 0 67.226562 -0.285156 67.03125 -0.859375 L 44.59375 -64.203125 L 22.4375 -0.859375 C 22.34375 -0.285156 21.867188 0 21.015625 0 L 1.5625 0 C 0.894531 0 0.441406 -0.1875 0.203125 -0.5625 C -0.0234375 -0.945312 -0.046875 -1.328125 0.140625 -1.703125 L 43.171875 -112.765625 C 43.367188 -113.335938 43.84375 -113.625 44.59375 -113.625 C 45.351562 -113.625 45.828125 -113.335938 46.015625 -112.765625 Z M 89.203125 -1.703125 "/></g></g></g><g fill="#000000" fill-opacity="1"><g transform="translate(195.00679, 273.282616)"><g><path d="M 23.4375 -72.4375 L 45.03125 -72.4375 L 45.03125 -1.28125 C 45.03125 -0.425781 44.457031 0 43.3125 0 L 25 0 C 23.957031 0 23.4375 -0.425781 23.4375 -1.28125 Z M 1.5625 -94.171875 C 0.519531 -94.171875 0 -94.59375 0 -95.4375 L 0 -112.34375 C 0 -113.195312 0.519531 -113.625 1.5625 -113.625 L 66.75 -113.625 C 67.789062 -113.625 68.3125 -113.195312 68.3125 -112.34375 L 68.3125 -95.4375 C 68.3125 -94.59375 67.789062 -94.171875 66.75 -94.171875 Z M 1.5625 -94.171875 "/></g></g></g><g fill="#000000" fill-opacity="1"><g transform="translate(103.037561, 251.845368)"><g><path d="M 2.40625 0 L -0.046875 0 L 3.4375 -9.40625 L 5.84375 -9.40625 L 9.234375 0 L 6.8125 0 L 6.3125 -1.578125 L 2.890625 -1.578125 Z M 4.59375 -7.09375 C 4.507812 -6.8125 4.421875 -6.515625 4.328125 -6.203125 C 4.234375 -5.890625 4.078125 -5.378906 3.859375 -4.671875 L 3.46875 -3.421875 L 5.734375 -3.421875 L 5.34375 -4.671875 C 5.207031 -5.046875 5.070312 -5.445312 4.9375 -5.875 C 4.8125 -6.300781 4.695312 -6.707031 4.59375 -7.09375 Z M 4.59375 -7.09375 "/></g></g></g><g fill="#000000" fill-opacity="1"><g transform="translate(120.43755, 251.845368)"><g><path d="M 6.046875 -3.5 L 4.421875 -3.5 L 4.421875 -5.375 L 8.21875 -5.375 L 8.21875 -0.421875 C 7.9375 -0.285156 7.4375 -0.15625 6.71875 -0.03125 C 6 0.09375 5.34375 0.15625 4.75 0.15625 C 3.125 0.15625 1.992188 -0.21875 1.359375 -0.96875 C 0.722656 -1.71875 0.40625 -2.960938 0.40625 -4.703125 C 0.40625 -6.390625 0.773438 -7.617188 1.515625 -8.390625 C 2.253906 -9.171875 3.4375 -9.5625 5.0625 -9.5625 C 5.644531 -9.5625 6.164062 -9.546875 6.625 -9.515625 C 7.09375 -9.492188 7.453125 -9.457031 7.703125 -9.40625 L 7.703125 -7.359375 C 7.378906 -7.390625 6.988281 -7.410156 6.53125 -7.421875 C 6.070312 -7.441406 5.582031 -7.453125 5.0625 -7.453125 C 4.488281 -7.453125 4.0625 -7.398438 3.78125 -7.296875 C 3.507812 -7.203125 3.304688 -7.03125 3.171875 -6.78125 C 3.035156 -6.582031 2.941406 -6.3125 2.890625 -5.96875 C 2.835938 -5.632812 2.8125 -5.210938 2.8125 -4.703125 C 2.8125 -4.210938 2.832031 -3.800781 2.875 -3.46875 C 2.925781 -3.144531 3.007812 -2.882812 3.125 -2.6875 C 3.257812 -2.414062 3.453125 -2.222656 3.703125 -2.109375 C 3.960938 -2.003906 4.363281 -1.953125 4.90625 -1.953125 C 5.082031 -1.953125 5.269531 -1.957031 5.46875 -1.96875 C 5.664062 -1.988281 5.859375 -2.015625 6.046875 -2.046875 Z M 6.046875 -3.5 "/></g></g></g><g fill="#000000" fill-opacity="1"><g transform="translate(137.282536, 251.845368)"><g><path d="M 8.0625 -2.765625 C 8.0625 -1.804688 7.78125 -1.101562 7.21875 -0.65625 C 6.664062 -0.21875 5.796875 0 4.609375 0 L 0.71875 0 L 0.71875 -9.40625 L 4.609375 -9.40625 C 5.679688 -9.40625 6.445312 -9.21875 6.90625 -8.84375 C 7.363281 -8.46875 7.59375 -7.835938 7.59375 -6.953125 C 7.59375 -6.398438 7.515625 -5.972656 7.359375 -5.671875 C 7.210938 -5.378906 6.914062 -5.15625 6.46875 -5 C 7.007812 -4.882812 7.410156 -4.640625 7.671875 -4.265625 C 7.929688 -3.898438 8.0625 -3.398438 8.0625 -2.765625 Z M 5.4375 -6.609375 C 5.4375 -6.941406 5.375 -7.171875 5.25 -7.296875 C 5.125 -7.429688 4.910156 -7.5 4.609375 -7.5 L 3.046875 -7.5 L 3.046875 -5.59375 L 4.609375 -5.59375 C 4.910156 -5.59375 5.125 -5.671875 5.25 -5.828125 C 5.375 -5.984375 5.4375 -6.242188 5.4375 -6.609375 Z M 5.8125 -2.90625 C 5.8125 -3.269531 5.71875 -3.523438 5.53125 -3.671875 C 5.351562 -3.816406 5.046875 -3.890625 4.609375 -3.890625 L 3.046875 -3.890625 L 3.046875 -1.984375 L 4.609375 -1.984375 C 5.046875 -1.984375 5.351562 -2.050781 5.53125 -2.1875 C 5.71875 -2.332031 5.8125 -2.570312 5.8125 -2.90625 Z M 5.8125 -2.90625 "/></g></g></g><g fill="#000000" fill-opacity="1"><g transform="translate(153.812521, 251.845368)"><g><path d="M 6.390625 -3.953125 L 6.390625 -9.40625 L 8.71875 -9.40625 L 8.71875 -3.953125 C 8.71875 -2.585938 8.378906 -1.5625 7.703125 -0.875 C 7.035156 -0.1875 6.03125 0.15625 4.6875 0.15625 C 3.28125 0.15625 2.253906 -0.164062 1.609375 -0.8125 C 0.960938 -1.46875 0.640625 -2.515625 0.640625 -3.953125 L 0.640625 -9.40625 L 2.96875 -9.40625 L 2.96875 -3.953125 C 2.96875 -3.191406 3.082031 -2.679688 3.3125 -2.421875 C 3.550781 -2.160156 4.007812 -2.03125 4.6875 -2.03125 C 5.363281 -2.03125 5.816406 -2.160156 6.046875 -2.421875 C 6.273438 -2.679688 6.390625 -3.191406 6.390625 -3.953125 Z M 6.390625 -3.953125 "/></g></g></g><g fill="#000000" fill-opacity="1"><g transform="translate(171.347518, 251.845368)"><g><path d="M 6.5625 -9.40625 L 8.953125 -9.40625 L 5.671875 -3.421875 L 5.671875 0 L 3.34375 0 L 3.34375 -3.421875 L -0.03125 -9.40625 L 2.625 -9.40625 L 4.515625 -5.46875 Z M 6.5625 -9.40625 "/></g></g></g><g fill="#000000" fill-opacity="1"><g transform="translate(188.477508, 251.845368)"><g><path d="M 2.40625 0 L -0.046875 0 L 3.4375 -9.40625 L 5.84375 -9.40625 L 9.234375 0 L 6.8125 0 L 6.3125 -1.578125 L 2.890625 -1.578125 Z M 4.59375 -7.09375 C 4.507812 -6.8125 4.421875 -6.515625 4.328125 -6.203125 C 4.234375 -5.890625 4.078125 -5.378906 3.859375 -4.671875 L 3.46875 -3.421875 L 5.734375 -3.421875 L 5.34375 -4.671875 C 5.207031 -5.046875 5.070312 -5.445312 4.9375 -5.875 C 4.8125 -6.300781 4.695312 -6.707031 4.59375 -7.09375 Z M 4.59375 -7.09375 "/></g></g></g><g fill="#000000" fill-opacity="1"><g transform="translate(212.37024, 148.029689)"><g><path d="M 8.140625 -10.03125 L 8.140625 -7.796875 L 5.40625 -7.796875 L 5.40625 0 L 2.921875 0 L 2.921875 -7.796875 L 0.1875 -7.796875 L 0.1875 -10.03125 Z M 8.140625 -10.03125 "/></g></g></g><g fill="#000000" fill-opacity="1"><g transform="translate(221.520237, 148.029689)"><g><path d="M 7.6875 -2.3125 L 7.6875 0 L 0.765625 0 L 0.765625 -10.03125 L 7.53125 -10.03125 L 7.53125 -7.796875 L 3.25 -7.796875 L 3.25 -6.125 L 6.9375 -6.125 L 6.9375 -4.046875 L 3.25 -4.046875 L 3.25 -2.3125 Z M 7.6875 -2.3125 "/></g></g></g><g fill="#000000" fill-opacity="1"><g transform="translate(230.4143, 148.029689)"><g><path d="M 5.125 -2.15625 C 5.550781 -2.15625 6.015625 -2.203125 6.515625 -2.296875 C 7.015625 -2.390625 7.460938 -2.507812 7.859375 -2.65625 L 7.859375 -0.46875 C 7.265625 -0.226562 6.734375 -0.0664062 6.265625 0.015625 C 5.796875 0.109375 5.304688 0.15625 4.796875 0.15625 C 3.867188 0.15625 3.128906 0.0507812 2.578125 -0.15625 C 2.023438 -0.375 1.582031 -0.71875 1.25 -1.1875 C 0.96875 -1.59375 0.757812 -2.109375 0.625 -2.734375 C 0.5 -3.367188 0.4375 -4.132812 0.4375 -5.03125 C 0.4375 -6.820312 0.820312 -8.128906 1.59375 -8.953125 C 2.363281 -9.773438 3.59375 -10.1875 5.28125 -10.1875 C 5.769531 -10.1875 6.207031 -10.175781 6.59375 -10.15625 C 6.976562 -10.132812 7.320312 -10.097656 7.625 -10.046875 L 7.625 -7.890625 C 7.28125 -7.910156 6.914062 -7.925781 6.53125 -7.9375 C 6.15625 -7.945312 5.738281 -7.953125 5.28125 -7.953125 C 4.695312 -7.953125 4.257812 -7.894531 3.96875 -7.78125 C 3.6875 -7.664062 3.476562 -7.472656 3.34375 -7.203125 C 3.21875 -6.984375 3.125 -6.695312 3.0625 -6.34375 C 3.007812 -6 2.984375 -5.5625 2.984375 -5.03125 C 2.984375 -4.519531 3.007812 -4.097656 3.0625 -3.765625 C 3.113281 -3.429688 3.191406 -3.148438 3.296875 -2.921875 C 3.429688 -2.648438 3.628906 -2.453125 3.890625 -2.328125 C 4.160156 -2.210938 4.570312 -2.15625 5.125 -2.15625 Z M 5.125 -2.15625 "/></g></g></g><g fill="#000000" fill-opacity="1"><g transform="translate(239.356347, 148.029689)"><g><path d="M 3.25 0 L 0.765625 0 L 0.765625 -10.03125 L 3.25 -10.03125 L 3.25 -6.203125 L 6.765625 -6.203125 L 6.765625 -10.03125 L 9.25 -10.03125 L 9.25 0 L 6.765625 0 L 6.765625 -3.96875 L 3.25 -3.96875 Z M 3.25 0 "/></g></g></g></svg>